<?xml version="1.0" encoding="UTF-8"?>
<svg width="92px" height="78px" viewBox="0 0 92 78" version="1.1" xmlns="http://www.w3.org/2000/svg" xmlns:xlink="http://www.w3.org/1999/xlink">
    <!-- Generator: Sketch 48.2 (47327) - http://www.bohemiancoding.com/sketch -->
    <title>Group 4</title>
    <desc>Created with Sketch.</desc>
    <defs>
        <circle id="path-1" cx="13" cy="13" r="13"></circle>
    </defs>
    <g id="新标签页_添加_搜索无结果" stroke="none" stroke-width="1" fill="none" fill-rule="evenodd" transform="translate(-194.000000, -317.000000)">
        <g id="Group-4" transform="translate(194.000000, 317.000000)">
            <path d="M68.5,24.2071068 L58.7928932,14.5 L25,14.5 C24.1715729,14.5 23.5,15.1715729 23.5,16 L23.5,66 C23.5,66.8284271 24.1715729,67.5 25,67.5 L67,67.5 C67.8284271,67.5 68.5,66.8284271 68.5,66 L68.5,24.2071068 Z" id="Rectangle-4" stroke="#A8AEBA"></path>
            <path d="M67.7928932,24.5 L58.5,15.2071068 L58.5,24.5 L67.7928932,24.5 Z" id="Rectangle-2" stroke="#A8AEBA"></path>
            <rect id="Rectangle-26" fill="#A8AEBA" x="31" y="34" width="19" height="1"></rect>
            <polygon id="Rectangle-26" fill="#A8AEBA" points="31 26 43 26 43 27 31 27"></polygon>
            <rect id="Rectangle-26" fill="#A8AEBA" x="31" y="50" width="28" height="1"></rect>
            <rect id="Rectangle-26" fill="#A8AEBA" x="31" y="42" width="23" height="1"></rect>
            <rect id="Rectangle-26" fill="#A8AEBA" x="31" y="58" width="28" height="1"></rect>
            <g id="Group-3" transform="translate(46.000000, 24.000000)">
                <g id="Group" transform="translate(21.758330, 24.686533) rotate(-30.000000) translate(-21.758330, -24.686533) translate(8.758330, 3.686533)">
                    <g id="Oval-8">
                        <use fill="#FFFFFF" fill-rule="evenodd" xlink:href="#path-1"></use>
                        <circle stroke="#A8AEBA" stroke-width="2" cx="13" cy="13" r="12"></circle>
                    </g>
                    <rect id="Rectangle-3" fill="#A8AEBA" x="11" y="30" width="4" height="12" rx="2"></rect>
                    <rect id="Rectangle-5" fill="#A8AEBA" x="12" y="25" width="2" height="7"></rect>
                </g>
                <path d="M18.437,11.624 C19.542,11.624 20.443,11.913 21.123,12.525 C21.803,13.12 22.143,13.936 22.143,14.973 C22.143,15.823 21.922,16.52 21.514,17.064 C21.361,17.234 20.868,17.693 20.052,18.407 C19.746,18.662 19.525,18.951 19.372,19.257 C19.202,19.597 19.117,19.954 19.117,20.362 L19.117,20.6 L17.162,20.6 L17.162,20.362 C17.162,19.716 17.264,19.155 17.502,18.696 C17.723,18.237 18.386,17.523 19.491,16.537 L19.695,16.299 C20.001,15.925 20.154,15.517 20.154,15.092 C20.154,14.531 19.984,14.089 19.678,13.766 C19.355,13.443 18.896,13.29 18.318,13.29 C17.57,13.29 17.043,13.511 16.72,13.987 C16.431,14.378 16.295,14.939 16.295,15.653 L14.357,15.653 C14.357,14.395 14.714,13.409 15.462,12.695 C16.193,11.981 17.179,11.624 18.437,11.624 Z M18.131,21.433 C18.505,21.433 18.828,21.552 19.083,21.79 C19.321,22.028 19.457,22.334 19.457,22.708 C19.457,23.082 19.321,23.405 19.066,23.643 C18.811,23.881 18.505,24 18.131,24 C17.757,24 17.451,23.864 17.196,23.626 C16.941,23.388 16.822,23.082 16.822,22.708 C16.822,22.334 16.941,22.028 17.196,21.79 C17.451,21.552 17.757,21.433 18.131,21.433 Z" id="？" fill="#A8AEBA"></path>
            </g>
            <path d="M0,68 L0,67 L6,67 L6,68 L0,68 Z M10,68 L10,67 L20,67 L20,68 L10,68 Z M24,68 L24,67 L73,67 L73,68 L24,68 Z M75,68 L75,67 L82,67 L82,68 L75,68 Z M85,68 L85,67 L90,67 L90,68 L85,68 Z" id="Path-4" fill="#A8AEBA" fill-rule="nonzero"></path>
            <path d="M20,73 L20,72 L26,72 L26,73 L20,73 Z M30,73 L30,72 L62,72 L62,73 L30,73 Z M67,73 L67,72 L72,72 L72,73 L67,73 Z" id="Path-4" fill="#A8AEBA" fill-rule="nonzero"></path>
            <polygon id="Path-4" fill="#A8AEBA" fill-rule="nonzero" points="25 78 25 77 33 77 33 78"></polygon>
            <path d="M7,20 L7,17 L8,17 L8,20 L11,20 L11,21 L8,21 L8,24 L7,24 L7,21 L4,21 L4,20 L7,20 Z" id="Combined-Shape" fill="#A8AEBA"></path>
            <path d="M15,50 L15,48 L16,48 L16,50 L18,50 L18,51 L16,51 L16,53 L15,53 L15,51 L13,51 L13,50 L15,50 Z" id="Combined-Shape" fill="#A8AEBA"></path>
            <path d="M75,18 L75,16 L76,16 L76,18 L78,18 L78,19 L76,19 L76,21 L75,21 L75,19 L73,19 L73,18 L75,18 Z" id="Combined-Shape" fill="#A8AEBA"></path>
            <path d="M87,4 L87,6.123234e-17 L88,0 L88,4 L92,4 L92,5 L88,5 L88,9 L87,9 L87,5 L83,5 L83,4 L87,4 Z" id="Combined-Shape" fill="#A8AEBA"></path>
        </g>
    </g>
</svg>