<?xml version="1.0" encoding="UTF-8"?>
<svg width="16px" height="16px" viewBox="0 0 16 16" version="1.1" xmlns="http://www.w3.org/2000/svg" xmlns:xlink="http://www.w3.org/1999/xlink">
    <!-- Generator: Sketch 48.2 (47327) - http://www.bohemiancoding.com/sketch -->
    <title>Group 2</title>
    <desc>Created with Sketch.</desc>
    <defs>
        <circle id="path-1" cx="8" cy="8" r="8"></circle>
    </defs>
    <g id="新标签页_背景" stroke="none" stroke-width="1" fill="none" fill-rule="evenodd" transform="translate(-91.000000, -63.000000)">
        <g id="Group-2" transform="translate(91.000000, 63.000000)">
            <g id="Oval">
                <use fill="#FFFFFF" fill-rule="evenodd" xlink:href="#path-1"></use>
                <circle stroke="#979797" stroke-width="1" cx="8" cy="8" r="7.5"></circle>
            </g>
            <path d="M8.155,3.08 C9.115,3.08 9.895,3.335 10.465,3.875 C11.02,4.385 11.305,5.09 11.305,5.99 C11.305,6.665 11.11,7.25 10.75,7.745 C10.6,7.925 10.18,8.315 9.52,8.9 C9.205,9.17 8.98,9.44 8.83,9.71 C8.635,10.04 8.545,10.415 8.545,10.82 L8.545,11.165 L7.33,11.165 L7.33,10.82 C7.33,10.325 7.42,9.89 7.615,9.515 C7.81,9.065 8.32,8.495 9.13,7.775 C9.37,7.535 9.535,7.355 9.64,7.235 C9.925,6.86 10.075,6.47 10.075,6.05 C10.075,5.45 9.91,4.985 9.58,4.655 C9.22,4.295 8.725,4.13 8.095,4.13 C7.36,4.13 6.805,4.37 6.43,4.865 C6.115,5.285 5.95,5.855 5.95,6.59 L4.75,6.59 C4.75,5.54 5.05,4.7 5.635,4.07 C6.25,3.41 7.09,3.08 8.155,3.08 Z M7.945,12.215 C8.2,12.215 8.41,12.29 8.59,12.47 C8.755,12.635 8.845,12.845 8.845,13.1 C8.845,13.37 8.755,13.58 8.59,13.745 C8.41,13.91 8.185,14 7.945,14 C7.675,14 7.465,13.91 7.3,13.745 C7.12,13.565 7.03,13.355 7.03,13.1 C7.03,12.845 7.12,12.635 7.3,12.47 C7.465,12.29 7.675,12.215 7.945,12.215 Z" id="?" fill="#989898"></path>
        </g>
    </g>
</svg>