<?xml version="1.0" encoding="UTF-8"?>
<svg width="16px" height="16px" viewBox="0 0 16 16" version="1.1" xmlns="http://www.w3.org/2000/svg" xmlns:xlink="http://www.w3.org/1999/xlink">
    <!-- Generator: Sketch 48.2 (47327) - http://www.bohemiancoding.com/sketch -->
    <title>列表删除</title>
    <desc>Created with Sketch.</desc>
    <defs></defs>
    <g id="Symbols" stroke="none" stroke-width="1" fill="none" fill-rule="evenodd">
        <g id="列表删除" fill="#666666">
            <path d="M12.6771127,3.32288726 C13.1076291,3.7534036 13.1076291,4.4514085 12.6771127,4.88192484 L9.55903758,8 L12.6771127,11.1180752 C13.1076291,11.5485915 13.1076291,12.2465964 12.6771127,12.6771127 C12.2465964,13.1076291 11.5485915,13.1076291 11.1180752,12.6771127 L8,9.55903758 L4.88192484,12.6771127 C4.4514085,13.1076291 3.7534036,13.1076291 3.32288726,12.6771127 C2.89237091,12.2465964 2.89237091,11.5485915 3.32288726,11.1180752 L6.44096242,8 L3.32288726,4.88192484 C2.89237091,4.4514085 2.89237091,3.7534036 3.32288726,3.32288726 C3.7534036,2.89237091 4.4514085,2.89237091 4.88192484,3.32288726 L8,6.44096242 L11.1180752,3.32288726 C11.5485915,2.89237091 12.2465964,2.89237091 12.6771127,3.32288726 Z" id="Combined-Shape"></path>
        </g>
    </g>
</svg>