<?xml version="1.0" encoding="UTF-8"?>
<svg width="20px" height="20px" viewBox="0 0 20 20" version="1.1" xmlns="http://www.w3.org/2000/svg" xmlns:xlink="http://www.w3.org/1999/xlink">
    <!-- Generator: Sketch 48.1 (47250) - http://www.bohemiancoding.com/sketch -->
    <title>添加站点</title>
    <desc>Created with Sketch.</desc>
    <defs></defs>
    <g id="新版标签页_默认页_深" stroke="none" stroke-width="1" fill="none" fill-rule="evenodd" transform="translate(-1190.000000, -666.000000)">
        <path d="M1199,675 L1199,667 C1199,666.447715 1199.44772,666 1200,666 C1200.55228,666 1201,666.447715 1201,667 L1201,675 L1209,675 C1209.55228,675 1210,675.447715 1210,676 C1210,676.552285 1209.55228,677 1209,677 L1201,677 L1201,685 C1201,685.552285 1200.55228,686 1200,686 C1199.44772,686 1199,685.552285 1199,685 L1199,677 L1191,677 C1190.44772,677 1190,676.552285 1190,676 C1190,675.447715 1190.44772,675 1191,675 L1199,675 Z" id="添加站点" fill="#666666"></path>
    </g>
</svg>