<?xml version="1.0" encoding="UTF-8"?>
<svg width="16px" height="16px" viewBox="0 0 16 16" version="1.1" xmlns="http://www.w3.org/2000/svg" xmlns:xlink="http://www.w3.org/1999/xlink">
    <!-- Generator: Sketch 48.1 (47250) - http://www.bohemiancoding.com/sketch -->
    <title>放大镜_大</title>
    <desc>Created with Sketch.</desc>
    <defs></defs>
    <g id="Symbols" stroke="none" stroke-width="1" fill="none" fill-rule="evenodd">
        <g id="放大镜_大" fill="#ffffff">
            <path d="M12.2933909,11.5805647 L16.0149319,15.2887453 L15.3036773,16 L11.582249,12.2919317 C10.3543675,13.3560748 8.75238216,14 7,14 C3.13400675,14 0,10.8659932 0,7 C0,3.13400675 3.13400675,0 7,0 C10.8659932,0 14,3.13400675 14,7 C14,8.75158101 13.3566635,10.3529027 12.2933909,11.5805647 Z M7,13 C10.3137085,13 13,10.3137085 13,7 C13,3.6862915 10.3137085,1 7,1 C3.6862915,1 1,3.6862915 1,7 C1,10.3137085 3.6862915,13 7,13 Z" id="Combined-Shape-Copy-5"></path>
        </g>
    </g>
</svg>